<svg enable-background="new 0 0 512 512" version="1.1" viewBox="0 0 512 512" xml:space="preserve" xmlns="http://www.w3.org/2000/svg" {{ with .size }} height="{{ . }}" width="{{ . }}"{{ end }} xmlns:cc="http://creativecommons.org/ns#" xmlns:dc="http://purl.org/dc/elements/1.1/" xmlns:rdf="http://www.w3.org/1999/02/22-rdf-syntax-ns#">
<g transform="translate(-14,-14)">
	<path d="m291.2 194.5h-41.7v139.5h43.1c61.3 0 75.4-46.6 75.4-69.8 0-37.7-24.1-69.7-76.8-69.7zm-35.2-163.5c-124.3 0-225 100.7-225 225s100.7 225 225 225 225-100.7 225-225-100.7-225-225-225zm-73.3 327.3h-27.1v-188.3h27.1zm-13.5-209.7c-9.8 0-17.8-7.9-17.8-17.8s7.9-17.8 17.8-17.8c9.8 0 17.8 7.9 17.8 17.8-0.1 9.8-8 17.8-17.8 17.8zm126.7 209.9h-73.5v-188.5h73.1c69.6 0 100.2 49.7 100.2 94.2 0 48.4-37.7 94.3-99.8 94.3z" fill:{{ .fill }}/>
</g>
</svg>

