<?xml version="1.0" encoding="UTF-8" standalone="no"?>
<svg
   xmlns:dc="http://purl.org/dc/elements/1.1/"
   xmlns:cc="http://creativecommons.org/ns#"
   xmlns:rdf="http://www.w3.org/1999/02/22-rdf-syntax-ns#"
   xmlns:svg="http://www.w3.org/2000/svg"
   xmlns="http://www.w3.org/2000/svg"
   xmlns:sodipodi="http://sodipodi.sourceforge.net/DTD/sodipodi-0.dtd"
   xmlns:inkscape="http://www.inkscape.org/namespaces/inkscape"
   role="img"
   viewBox="0 0 24 24"
   version="1.1"
   id="svg837"
   sodipodi:docname="kaggle.svg"
   inkscape:version="1.0 (4035a4f, 2020-05-01)">
  <metadata
     id="metadata843">
    <rdf:RDF>
      <cc:Work
         rdf:about="">
        <dc:format>image/svg+xml</dc:format>
        <dc:type
           rdf:resource="http://purl.org/dc/dcmitype/StillImage" />
      </cc:Work>
    </rdf:RDF>
  </metadata>
  <defs
     id="defs841" />
  <sodipodi:namedview
     inkscape:document-rotation="0"
     pagecolor="#ffffff"
     bordercolor="#666666"
     borderopacity="1"
     objecttolerance="10"
     gridtolerance="10"
     guidetolerance="10"
     inkscape:pageopacity="0"
     inkscape:pageshadow="2"
     inkscape:window-width="776"
     inkscape:window-height="957"
     id="namedview839"
     showgrid="false"
     inkscape:zoom="29.666667"
     inkscape:cx="12"
     inkscape:cy="12"
     inkscape:window-x="0"
     inkscape:window-y="23"
     inkscape:window-maximized="0"
     inkscape:current-layer="svg837" />
  <title
     id="title833">Kaggle icon</title>
  <path
     d="M18.825 23.859c-.022.092-.117.141-.281.141h-3.139c-.187 0-.351-.082-.492-.248l-5.178-6.589-1.448 1.374v5.111c0 .235-.117.352-.351.352H5.505c-.236 0-.354-.117-.354-.352V.353c0-.233.118-.353.354-.353h2.431c.234 0 .351.12.351.353v14.343l6.203-6.272c.165-.165.33-.246.495-.246h3.239c.144 0 .236.06.285.18.046.149.034.255-.036.315l-6.555 6.344 6.836 8.507c.095.104.117.208.07.358"
     id="path835"
     style="fill:#04b2d9;fill-opacity:1" />
</svg>
