<?xml version="1.0" encoding="UTF-8" standalone="no"?>
<svg
   xmlns:osb="http://www.openswatchbook.org/uri/2009/osb"
   xmlns:dc="http://purl.org/dc/elements/1.1/"
   xmlns:cc="http://creativecommons.org/ns#"
   xmlns:rdf="http://www.w3.org/1999/02/22-rdf-syntax-ns#"
   xmlns:svg="http://www.w3.org/2000/svg"
   xmlns="http://www.w3.org/2000/svg"
   xmlns:xlink="http://www.w3.org/1999/xlink"
   xmlns:sodipodi="http://sodipodi.sourceforge.net/DTD/sodipodi-0.dtd"
   xmlns:inkscape="http://www.inkscape.org/namespaces/inkscape"
   role="img"
   viewBox="0 0 24 24"
   version="1.1"
   id="svg837"
   sodipodi:docname="mocha.svg"
   inkscape:version="1.0 (4035a4f, 2020-05-01)">
  <metadata
     id="metadata843">
    <rdf:RDF>
      <cc:Work
         rdf:about="">
        <dc:format>image/svg+xml</dc:format>
        <dc:type
           rdf:resource="http://purl.org/dc/dcmitype/StillImage" />
      </cc:Work>
    </rdf:RDF>
  </metadata>
  <defs
     id="defs841">
    <linearGradient
       id="linearGradient2845-0"
       inkscape:collect="always">
      <stop
         id="stop2841"
         offset="0"
         style="stop-color:#f2cb05;stop-opacity:1;" />
      <stop
         id="stop2843"
         offset="1"
         style="stop-color:#f2cb05;stop-opacity:0" />
    </linearGradient>
    <linearGradient
       osb:paint="solid"
       id="linearGradient2835">
      <stop
         id="stop2833"
         offset="0"
         style="stop-color:#f2cb05;stop-opacity:1;" />
    </linearGradient>
    <linearGradient
       gradientUnits="userSpaceOnUse"
       y2="0.96126753"
       x2="9.2381277"
       y1="12.320818"
       x1="4.2113098"
       id="linearGradient2847"
       xlink:href="#linearGradient2845-0"
       inkscape:collect="always" />
  </defs>
  <sodipodi:namedview
     inkscape:document-rotation="0"
     pagecolor="#ffffff"
     bordercolor="#666666"
     borderopacity="1"
     objecttolerance="10"
     gridtolerance="10"
     guidetolerance="10"
     inkscape:pageopacity="0"
     inkscape:pageshadow="2"
     inkscape:window-width="1408"
     inkscape:window-height="957"
     id="namedview839"
     showgrid="false"
     inkscape:zoom="29.666667"
     inkscape:cx="12"
     inkscape:cy="11.865169"
     inkscape:window-x="0"
     inkscape:window-y="23"
     inkscape:window-maximized="0"
     inkscape:current-layer="svg837" />
  <title
     id="title833">Mocha icon</title>
  <path
     d="m 12.886797,0.3033708 c -0.907,1.116 -2.442,2.302 -0.768,4.814 0.558,0.628 0.838,1.953 0.768,2.372 0,0 2.512,-1.464 0.977,-4.116 -0.907,-1.395 -1.326,-2.582 -0.977,-3.07 z m -2.79,2.582 c -0.6279992,0.767 -1.6049992,1.535 -0.4889992,3.279 0.3499995,0.349 0.4889992,1.256 0.4889992,1.535 0,0 1.673,-0.978 0.627,-2.792 -0.628,-0.907 -0.9059992,-1.743 -0.627,-2.022 z m -5.0939992,6 a 0.699,0.699 0 0 0 -0.697,0.698 c 0,2.3720002 0.349,10.5350002 3.837,14.5120002 0.14,0.139 0.28,0.208 0.489,0.208 h 5.8599992 c 0.21,0 0.35,-0.069 0.489,-0.208 3.488,-3.908 3.837,-12.07 3.837,-14.5120002 a 0.7,0.7 0 0 0 -0.698,-0.699 h -6.558 z m 2.023,2.1630002 h 9.2099992 c 0.349,0 0.697,0.278 0.697,0.697 0,1.953 -0.348,7.465 -2.72,10.326 -0.21,0.14 -0.35,0.208 -0.559,0.208 H 9.5377978 a 0.633,0.633 0 0 1 -0.488,-0.208 c -2.372,-2.79 -2.652,-8.373 -2.722,-10.326 0,-0.35 0.28,-0.697 0.698,-0.697 z m 8.7919992,4.744 c 0,0 -0.071,0.627 -1.745,1.255 -2.303,0.837 -6.3479992,0.28 -6.3479992,0.28 0.349,1.465 0.906,2.86 1.743,3.907 0.07,0.14 0.28,0.209 0.419,0.209 h 3.4889992 c 0.14,0 0.279,-0.07 0.418,-0.209 1.186,-1.395 1.745,-3.558 2.024,-5.442 z"
     id="path835"
     style="opacity:1;mix-blend-mode:normal;fill:url(#linearGradient2847);fill-opacity:1;fill-rule:evenodd;stroke:#020659;stroke-width:0.188976;stroke-miterlimit:4;stroke-dasharray:none;stroke-opacity:1" />
</svg>
