<?xml version="1.0" encoding="UTF-8" standalone="no"?>
<svg
   xmlns:osb="http://www.openswatchbook.org/uri/2009/osb"
   xmlns:dc="http://purl.org/dc/elements/1.1/"
   xmlns:cc="http://creativecommons.org/ns#"
   xmlns:rdf="http://www.w3.org/1999/02/22-rdf-syntax-ns#"
   xmlns:svg="http://www.w3.org/2000/svg"
   xmlns="http://www.w3.org/2000/svg"
   xmlns:xlink="http://www.w3.org/1999/xlink"
   xmlns:sodipodi="http://sodipodi.sourceforge.net/DTD/sodipodi-0.dtd"
   xmlns:inkscape="http://www.inkscape.org/namespaces/inkscape"
   inkscape:version="1.0 (4035a4f, 2020-05-01)"
   sodipodi:docname="mocha.svg"
   id="svg837"
   version="1.1"
   viewBox="0 0 24 24"
   role="img">
  <metadata
     id="metadata843">
    <rdf:RDF>
      <cc:Work
         rdf:about="">
        <dc:format>image/svg+xml</dc:format>
        <dc:type
           rdf:resource="http://purl.org/dc/dcmitype/StillImage" />
      </cc:Work>
    </rdf:RDF>
  </metadata>
  <defs
     id="defs841">
    <linearGradient
       osb:paint="solid"
       id="linearGradient2797">
      <stop
         id="stop2795"
         offset="0"
         style="stop-color:#0d0d0d;stop-opacity:1;" />
    </linearGradient>
    <linearGradient
       id="linearGradient2835"
       osb:paint="solid">
      <stop
         style="stop-color:#f2cb05;stop-opacity:1;"
         offset="0"
         id="stop2833" />
    </linearGradient>
    <linearGradient
       gradientUnits="userSpaceOnUse"
       y2="11.242166"
       x2="20.429138"
       y1="11.242166"
       x1="5.7281637"
       id="linearGradient2799"
       xlink:href="#linearGradient2797"
       inkscape:collect="always" />
  </defs>
  <sodipodi:namedview
     inkscape:current-layer="svg837"
     inkscape:window-maximized="0"
     inkscape:window-y="23"
     inkscape:window-x="0"
     inkscape:cy="9.1685398"
     inkscape:cx="12"
     inkscape:zoom="29.666667"
     showgrid="false"
     id="namedview839"
     inkscape:window-height="957"
     inkscape:window-width="1408"
     inkscape:pageshadow="2"
     inkscape:pageopacity="0"
     guidetolerance="10"
     gridtolerance="10"
     objecttolerance="10"
     borderopacity="1"
     bordercolor="#666666"
     pagecolor="#ffffff"
     inkscape:document-rotation="0" />
  <title
     id="title833">Mocha icon</title>
  <path
     sodipodi:nodetypes="cccccccccccccsscccccssscscccsccccsscc"
     style="opacity:1;mix-blend-mode:normal;fill:url(#linearGradient2799);fill-opacity:1.0;fill-rule:evenodd;stroke:#f2cb05;stroke-width:0.188976;stroke-miterlimit:4;stroke-dasharray:none;stroke-opacity:1"
     id="path835"
     d="m 15.145224,-2.730337 c -0.907,1.116 -3.183573,4.2570561 -1.509573,6.7690561 0.558,0.628 1.073955,0.8743483 0.768,2.372 0,0 1.39964,-2.3404045 -0.13536,-4.9924045 -0.907,-1.39499995 0.527933,-3.6606516 0.876933,-4.1486516 z m -3.531573,4.5370561 c -0.627999,0.767 -1.604999,1.535 -0.488999,3.279 0.349999,0.349 0.488999,1.256 0.488999,1.535 0,0 1.673,-0.978 0.627,-2.792 -0.628,-0.907 -0.905999,-1.743 -0.627,-2.022 z m -5.0939993,6 c -0.3848758,0.0011 -0.696451,0.313123 -0.697,0.698 0,2.3719999 0.349,10.5349999 3.837,14.5119999 0.14,0.139 0.28,0.208 0.4890003,0.208 h 5.859999 c 0.21,0 0.35,-0.069 0.489,-0.208 3.488,-3.908 3.837,-12.07 3.837,-14.5119999 -5.49e-4,-0.3854293 -0.312572,-0.6978992 -0.698,-0.699 h -6.558 z m 2.023,2.1630002 h 9.2099993 c 0.349,0 0.697,0.2779997 0.697,0.6969997 0,1.953 -0.348,7.465 -2.72,10.326 -0.21,0.14 -0.35,0.208 -0.559,0.208 h -4.115999 c -0.185274,0.0055 -0.363632,-0.07056 -0.488,-0.208 -2.3720003,-2.79 -2.6520003,-8.373 -2.7220003,-10.326 0,-0.35 0.28,-0.6969997 0.698,-0.6969997 z m 8.7919993,4.7439997 c 0,0 -0.071,0.627 -1.745,1.255 -2.303,0.837 -6.3479993,0.28 -6.3479993,0.28 0.349,1.465 0.9060003,2.86 1.7430003,3.907 0.07,0.14 0.28,0.209 0.419,0.209 h 3.488999 c 0.14,0 0.279,-0.07 0.418,-0.209 1.186,-1.395 1.745,-3.558 2.024,-5.442 z" />
</svg>
