<?xml version="1.0" encoding="UTF-8" standalone="no"?>
<svg
   xmlns:dc="http://purl.org/dc/elements/1.1/"
   xmlns:cc="http://creativecommons.org/ns#"
   xmlns:rdf="http://www.w3.org/1999/02/22-rdf-syntax-ns#"
   xmlns:svg="http://www.w3.org/2000/svg"
   xmlns="http://www.w3.org/2000/svg"
   xmlns:sodipodi="http://sodipodi.sourceforge.net/DTD/sodipodi-0.dtd"
   xmlns:inkscape="http://www.inkscape.org/namespaces/inkscape"
   role="img"
   viewBox="0 0 24 24"
   version="1.1"
   id="svg849"
   sodipodi:docname="rstudio.svg"
   inkscape:version="1.0 (4035a4f, 2020-05-01)">
  <metadata
     id="metadata855">
    <rdf:RDF>
      <cc:Work
         rdf:about="">
        <dc:format>image/svg+xml</dc:format>
        <dc:type
           rdf:resource="http://purl.org/dc/dcmitype/StillImage" />
      </cc:Work>
    </rdf:RDF>
  </metadata>
  <defs
     id="defs853" />
  <sodipodi:namedview
     inkscape:document-rotation="0"
     pagecolor="#ffffff"
     bordercolor="#666666"
     borderopacity="1"
     objecttolerance="10"
     gridtolerance="10"
     guidetolerance="10"
     inkscape:pageopacity="0"
     inkscape:pageshadow="2"
     inkscape:window-width="1230"
     inkscape:window-height="931"
     id="namedview851"
     showgrid="false"
     inkscape:zoom="30.625"
     inkscape:cx="12"
     inkscape:cy="12"
     inkscape:window-x="0"
     inkscape:window-y="23"
     inkscape:window-maximized="0"
     inkscape:current-layer="svg849" />
  <title
     id="title845">RStudio icon</title>
  <path
     d="M12.178.002a12.002 12.002 0 0 0-8.662 3.515 12.002 12.002 0 0 0 0 16.97 12.002 12.002 0 0 0 16.97 0 12.002 12.002 0 0 0 0-16.97A12.002 12.002 0 0 0 12.179.002zM7.77 5.995c.562.128 1.05.217 1.663.217.921 0 1.863-.217 2.786-.217 1.79 0 3.45.814 3.45 2.8 0 1.54-.921 2.517-2.35 2.93l2.788 4.107h1.301v1.01h-1.986l-3.293-4.934h-1.757v3.924h1.718v1.01H7.77v-1.01h1.483V7.134L7.77 6.951v-.957zm4.466 1.012c-.596 0-1.213.053-1.864.127v3.798l.941.02c2.298.034 3.183-.85 3.183-2.026 0-1.376-.997-1.919-2.26-1.919z"
     id="path847"
     style="fill:#d9631e;fill-opacity:1" />
</svg>
